<mxfile host="Electron" modified="2024-06-10T17:55:22.080Z" agent="Mozilla/5.0 (Windows NT 10.0; Win64; x64) AppleWebKit/537.36 (KHTML, like Gecko) draw.io/23.0.2 Chrome/120.0.6099.109 Electron/28.1.0 Safari/537.36" etag="IpjUMcU3qeJFZxFOw9q8" version="23.0.2" type="device">
  <diagram name="Страница — 1" id="qlBbEk5ga-bJW3PWc37U">
    <mxGraphModel dx="1247" dy="734" grid="1" gridSize="10" guides="1" tooltips="1" connect="1" arrows="1" fold="1" page="1" pageScale="1" pageWidth="827" pageHeight="1169" math="0" shadow="0">
      <root>
        <mxCell id="0" />
        <mxCell id="1" parent="0" />
        <mxCell id="2QHzCjNp6x9rJyndLg0q-17" style="edgeStyle=orthogonalEdgeStyle;rounded=0;orthogonalLoop=1;jettySize=auto;html=1;entryX=0.5;entryY=0;entryDx=0;entryDy=0;" parent="1" source="2QHzCjNp6x9rJyndLg0q-1" target="2QHzCjNp6x9rJyndLg0q-4" edge="1">
          <mxGeometry relative="1" as="geometry">
            <mxPoint x="740" y="330" as="targetPoint" />
            <Array as="points">
              <mxPoint x="700" y="150" />
              <mxPoint x="740" y="150" />
              <mxPoint x="740" y="280" />
              <mxPoint x="700" y="280" />
            </Array>
          </mxGeometry>
        </mxCell>
        <mxCell id="2QHzCjNp6x9rJyndLg0q-1" value="Вход" style="ellipse;whiteSpace=wrap;html=1;" parent="1" vertex="1">
          <mxGeometry x="640" y="40" width="120" height="80" as="geometry" />
        </mxCell>
        <mxCell id="2QHzCjNp6x9rJyndLg0q-2" value="БД пользователей" style="shape=datastore;whiteSpace=wrap;html=1;boundedLbl=1;backgroundOutline=1;size=15;" parent="1" vertex="1">
          <mxGeometry x="160" y="90" width="60" height="80" as="geometry" />
        </mxCell>
        <mxCell id="2QHzCjNp6x9rJyndLg0q-14" style="edgeStyle=orthogonalEdgeStyle;rounded=0;orthogonalLoop=1;jettySize=auto;html=1;entryX=0.5;entryY=0;entryDx=0;entryDy=0;" parent="1" source="2QHzCjNp6x9rJyndLg0q-3" target="2QHzCjNp6x9rJyndLg0q-4" edge="1">
          <mxGeometry relative="1" as="geometry" />
        </mxCell>
        <mxCell id="2QHzCjNp6x9rJyndLg0q-3" value="Регистрация" style="rounded=0;whiteSpace=wrap;html=1;" parent="1" vertex="1">
          <mxGeometry x="530" y="170" width="120" height="60" as="geometry" />
        </mxCell>
        <mxCell id="2QHzCjNp6x9rJyndLg0q-15" style="edgeStyle=orthogonalEdgeStyle;rounded=0;orthogonalLoop=1;jettySize=auto;html=1;" parent="1" source="2QHzCjNp6x9rJyndLg0q-4" target="2QHzCjNp6x9rJyndLg0q-2" edge="1">
          <mxGeometry relative="1" as="geometry">
            <mxPoint x="500" y="330" as="targetPoint" />
          </mxGeometry>
        </mxCell>
        <mxCell id="2QHzCjNp6x9rJyndLg0q-16" style="edgeStyle=orthogonalEdgeStyle;rounded=0;orthogonalLoop=1;jettySize=auto;html=1;entryX=0.5;entryY=0;entryDx=0;entryDy=0;" parent="1" source="2QHzCjNp6x9rJyndLg0q-4" target="2QHzCjNp6x9rJyndLg0q-5" edge="1">
          <mxGeometry relative="1" as="geometry" />
        </mxCell>
        <mxCell id="2QHzCjNp6x9rJyndLg0q-36" style="edgeStyle=orthogonalEdgeStyle;rounded=0;orthogonalLoop=1;jettySize=auto;html=1;" parent="1" source="2QHzCjNp6x9rJyndLg0q-4" target="2QHzCjNp6x9rJyndLg0q-24" edge="1">
          <mxGeometry relative="1" as="geometry" />
        </mxCell>
        <mxCell id="2QHzCjNp6x9rJyndLg0q-4" value="Авторизация" style="rounded=0;whiteSpace=wrap;html=1;" parent="1" vertex="1">
          <mxGeometry x="640" y="330" width="120" height="60" as="geometry" />
        </mxCell>
        <mxCell id="2QHzCjNp6x9rJyndLg0q-5" value="Добавление заявки" style="rounded=0;whiteSpace=wrap;html=1;" parent="1" vertex="1">
          <mxGeometry x="330" y="430" width="120" height="60" as="geometry" />
        </mxCell>
        <mxCell id="2QHzCjNp6x9rJyndLg0q-33" style="edgeStyle=orthogonalEdgeStyle;rounded=0;orthogonalLoop=1;jettySize=auto;html=1;entryX=0;entryY=0.5;entryDx=0;entryDy=0;" parent="1" source="2QHzCjNp6x9rJyndLg0q-6" target="2QHzCjNp6x9rJyndLg0q-25" edge="1">
          <mxGeometry relative="1" as="geometry">
            <Array as="points">
              <mxPoint x="140" y="660" />
              <mxPoint x="255" y="660" />
              <mxPoint x="255" y="690" />
            </Array>
          </mxGeometry>
        </mxCell>
        <mxCell id="2QHzCjNp6x9rJyndLg0q-6" value="ФИО клиента" style="html=1;strokeWidth=2;shape=manualInput;whiteSpace=wrap;rounded=1;size=26;arcSize=11;" parent="1" vertex="1">
          <mxGeometry x="90" y="540" width="100" height="60" as="geometry" />
        </mxCell>
        <mxCell id="2QHzCjNp6x9rJyndLg0q-7" value="Описание проблемы" style="html=1;strokeWidth=2;shape=manualInput;whiteSpace=wrap;rounded=1;size=26;arcSize=11;" parent="1" vertex="1">
          <mxGeometry x="210" y="540" width="100" height="60" as="geometry" />
        </mxCell>
        <mxCell id="2QHzCjNp6x9rJyndLg0q-31" style="edgeStyle=orthogonalEdgeStyle;rounded=0;orthogonalLoop=1;jettySize=auto;html=1;entryX=0.5;entryY=0;entryDx=0;entryDy=0;" parent="1" source="2QHzCjNp6x9rJyndLg0q-8" target="2QHzCjNp6x9rJyndLg0q-25" edge="1">
          <mxGeometry relative="1" as="geometry" />
        </mxCell>
        <mxCell id="2QHzCjNp6x9rJyndLg0q-8" value="Статус заявки" style="html=1;strokeWidth=2;shape=manualInput;whiteSpace=wrap;rounded=1;size=26;arcSize=11;" parent="1" vertex="1">
          <mxGeometry x="330" y="540" width="100" height="60" as="geometry" />
        </mxCell>
        <mxCell id="2QHzCjNp6x9rJyndLg0q-9" value="Тип неисправности" style="html=1;strokeWidth=2;shape=manualInput;whiteSpace=wrap;rounded=1;size=26;arcSize=11;" parent="1" vertex="1">
          <mxGeometry x="450" y="540" width="100" height="60" as="geometry" />
        </mxCell>
        <mxCell id="2QHzCjNp6x9rJyndLg0q-29" style="edgeStyle=orthogonalEdgeStyle;rounded=0;orthogonalLoop=1;jettySize=auto;html=1;entryX=1;entryY=0.5;entryDx=0;entryDy=0;" parent="1" source="2QHzCjNp6x9rJyndLg0q-10" target="2QHzCjNp6x9rJyndLg0q-25" edge="1">
          <mxGeometry relative="1" as="geometry">
            <mxPoint x="620" y="700" as="targetPoint" />
            <Array as="points">
              <mxPoint x="620" y="660" />
              <mxPoint x="505" y="660" />
              <mxPoint x="505" y="690" />
            </Array>
          </mxGeometry>
        </mxCell>
        <mxCell id="2QHzCjNp6x9rJyndLg0q-10" value="Оборудование, которое требует ремонт" style="html=1;strokeWidth=2;shape=manualInput;whiteSpace=wrap;rounded=1;size=26;arcSize=11;" parent="1" vertex="1">
          <mxGeometry x="570" y="540" width="100" height="60" as="geometry" />
        </mxCell>
        <mxCell id="2QHzCjNp6x9rJyndLg0q-13" style="edgeStyle=orthogonalEdgeStyle;rounded=0;orthogonalLoop=1;jettySize=auto;html=1;exitX=0;exitY=0.5;exitDx=0;exitDy=0;entryX=1;entryY=0.5;entryDx=0;entryDy=0;entryPerimeter=0;" parent="1" source="2QHzCjNp6x9rJyndLg0q-3" target="2QHzCjNp6x9rJyndLg0q-2" edge="1">
          <mxGeometry relative="1" as="geometry" />
        </mxCell>
        <mxCell id="2QHzCjNp6x9rJyndLg0q-18" style="edgeStyle=orthogonalEdgeStyle;rounded=0;orthogonalLoop=1;jettySize=auto;html=1;entryX=0.5;entryY=0;entryDx=0;entryDy=0;" parent="1" source="2QHzCjNp6x9rJyndLg0q-1" target="2QHzCjNp6x9rJyndLg0q-3" edge="1">
          <mxGeometry relative="1" as="geometry">
            <Array as="points">
              <mxPoint x="700" y="150" />
              <mxPoint x="590" y="150" />
            </Array>
          </mxGeometry>
        </mxCell>
        <mxCell id="2QHzCjNp6x9rJyndLg0q-19" style="edgeStyle=orthogonalEdgeStyle;rounded=0;orthogonalLoop=1;jettySize=auto;html=1;entryX=0.39;entryY=0.283;entryDx=0;entryDy=0;entryPerimeter=0;" parent="1" source="2QHzCjNp6x9rJyndLg0q-5" target="2QHzCjNp6x9rJyndLg0q-8" edge="1">
          <mxGeometry relative="1" as="geometry" />
        </mxCell>
        <mxCell id="2QHzCjNp6x9rJyndLg0q-20" style="edgeStyle=orthogonalEdgeStyle;rounded=0;orthogonalLoop=1;jettySize=auto;html=1;entryX=0.54;entryY=0.183;entryDx=0;entryDy=0;entryPerimeter=0;" parent="1" source="2QHzCjNp6x9rJyndLg0q-5" target="2QHzCjNp6x9rJyndLg0q-6" edge="1">
          <mxGeometry relative="1" as="geometry" />
        </mxCell>
        <mxCell id="2QHzCjNp6x9rJyndLg0q-21" style="edgeStyle=orthogonalEdgeStyle;rounded=0;orthogonalLoop=1;jettySize=auto;html=1;entryX=0.56;entryY=0.183;entryDx=0;entryDy=0;entryPerimeter=0;" parent="1" source="2QHzCjNp6x9rJyndLg0q-5" target="2QHzCjNp6x9rJyndLg0q-7" edge="1">
          <mxGeometry relative="1" as="geometry" />
        </mxCell>
        <mxCell id="2QHzCjNp6x9rJyndLg0q-22" style="edgeStyle=orthogonalEdgeStyle;rounded=0;orthogonalLoop=1;jettySize=auto;html=1;entryX=0.49;entryY=0.233;entryDx=0;entryDy=0;entryPerimeter=0;" parent="1" source="2QHzCjNp6x9rJyndLg0q-5" target="2QHzCjNp6x9rJyndLg0q-9" edge="1">
          <mxGeometry relative="1" as="geometry" />
        </mxCell>
        <mxCell id="2QHzCjNp6x9rJyndLg0q-23" style="edgeStyle=orthogonalEdgeStyle;rounded=0;orthogonalLoop=1;jettySize=auto;html=1;entryX=0.5;entryY=0.233;entryDx=0;entryDy=0;entryPerimeter=0;" parent="1" source="2QHzCjNp6x9rJyndLg0q-5" target="2QHzCjNp6x9rJyndLg0q-10" edge="1">
          <mxGeometry relative="1" as="geometry" />
        </mxCell>
        <mxCell id="2QHzCjNp6x9rJyndLg0q-35" style="edgeStyle=orthogonalEdgeStyle;rounded=0;orthogonalLoop=1;jettySize=auto;html=1;" parent="1" source="2QHzCjNp6x9rJyndLg0q-24" edge="1">
          <mxGeometry relative="1" as="geometry">
            <mxPoint x="601.5999999999999" y="780" as="targetPoint" />
          </mxGeometry>
        </mxCell>
        <mxCell id="2QHzCjNp6x9rJyndLg0q-65" style="edgeStyle=orthogonalEdgeStyle;rounded=0;orthogonalLoop=1;jettySize=auto;html=1;" parent="1" source="2QHzCjNp6x9rJyndLg0q-24" target="2QHzCjNp6x9rJyndLg0q-45" edge="1">
          <mxGeometry relative="1" as="geometry" />
        </mxCell>
        <mxCell id="2QHzCjNp6x9rJyndLg0q-71" style="edgeStyle=orthogonalEdgeStyle;rounded=0;orthogonalLoop=1;jettySize=auto;html=1;entryX=0.75;entryY=0;entryDx=0;entryDy=0;exitX=0.23;exitY=0.72;exitDx=0;exitDy=0;exitPerimeter=0;" parent="1" source="2QHzCjNp6x9rJyndLg0q-24" target="2QHzCjNp6x9rJyndLg0q-37" edge="1">
          <mxGeometry relative="1" as="geometry">
            <Array as="points">
              <mxPoint x="923" y="820" />
              <mxPoint x="570" y="820" />
            </Array>
          </mxGeometry>
        </mxCell>
        <mxCell id="2QHzCjNp6x9rJyndLg0q-24" value="Модерация заявки" style="strokeWidth=2;html=1;shape=mxgraph.flowchart.decision;whiteSpace=wrap;" parent="1" vertex="1">
          <mxGeometry x="900" y="730" width="100" height="100" as="geometry" />
        </mxCell>
        <mxCell id="2QHzCjNp6x9rJyndLg0q-34" style="edgeStyle=orthogonalEdgeStyle;rounded=0;orthogonalLoop=1;jettySize=auto;html=1;entryX=0.5;entryY=0;entryDx=0;entryDy=0;" parent="1" source="2QHzCjNp6x9rJyndLg0q-25" edge="1">
          <mxGeometry relative="1" as="geometry">
            <mxPoint x="540" y="750" as="targetPoint" />
          </mxGeometry>
        </mxCell>
        <mxCell id="2QHzCjNp6x9rJyndLg0q-25" value="Формирование заявки" style="rounded=0;whiteSpace=wrap;html=1;" parent="1" vertex="1">
          <mxGeometry x="320" y="660" width="120" height="60" as="geometry" />
        </mxCell>
        <mxCell id="2QHzCjNp6x9rJyndLg0q-30" style="edgeStyle=orthogonalEdgeStyle;rounded=0;orthogonalLoop=1;jettySize=auto;html=1;entryX=0.567;entryY=0.05;entryDx=0;entryDy=0;entryPerimeter=0;" parent="1" source="2QHzCjNp6x9rJyndLg0q-9" target="2QHzCjNp6x9rJyndLg0q-25" edge="1">
          <mxGeometry relative="1" as="geometry">
            <Array as="points">
              <mxPoint x="500" y="640" />
              <mxPoint x="388" y="640" />
            </Array>
          </mxGeometry>
        </mxCell>
        <mxCell id="2QHzCjNp6x9rJyndLg0q-32" style="edgeStyle=orthogonalEdgeStyle;rounded=0;orthogonalLoop=1;jettySize=auto;html=1;entryX=0.325;entryY=0.05;entryDx=0;entryDy=0;entryPerimeter=0;" parent="1" source="2QHzCjNp6x9rJyndLg0q-7" target="2QHzCjNp6x9rJyndLg0q-25" edge="1">
          <mxGeometry relative="1" as="geometry">
            <Array as="points">
              <mxPoint x="260" y="640" />
              <mxPoint x="359" y="640" />
            </Array>
          </mxGeometry>
        </mxCell>
        <mxCell id="2QHzCjNp6x9rJyndLg0q-53" style="edgeStyle=orthogonalEdgeStyle;rounded=0;orthogonalLoop=1;jettySize=auto;html=1;entryX=0.5;entryY=0;entryDx=0;entryDy=0;" parent="1" source="2QHzCjNp6x9rJyndLg0q-37" target="2QHzCjNp6x9rJyndLg0q-38" edge="1">
          <mxGeometry relative="1" as="geometry" />
        </mxCell>
        <mxCell id="2QHzCjNp6x9rJyndLg0q-54" style="edgeStyle=orthogonalEdgeStyle;rounded=0;orthogonalLoop=1;jettySize=auto;html=1;entryX=0.5;entryY=0;entryDx=0;entryDy=0;" parent="1" source="2QHzCjNp6x9rJyndLg0q-37" target="2QHzCjNp6x9rJyndLg0q-39" edge="1">
          <mxGeometry relative="1" as="geometry" />
        </mxCell>
        <mxCell id="2QHzCjNp6x9rJyndLg0q-70" style="edgeStyle=orthogonalEdgeStyle;rounded=0;orthogonalLoop=1;jettySize=auto;html=1;entryX=0;entryY=0.5;entryDx=0;entryDy=0;entryPerimeter=0;" parent="1" source="2QHzCjNp6x9rJyndLg0q-37" target="2QHzCjNp6x9rJyndLg0q-43" edge="1">
          <mxGeometry relative="1" as="geometry">
            <mxPoint x="660" y="910" as="targetPoint" />
            <Array as="points" />
          </mxGeometry>
        </mxCell>
        <mxCell id="2QHzCjNp6x9rJyndLg0q-37" value="Добавление заявки в БД" style="rounded=0;whiteSpace=wrap;html=1;" parent="1" vertex="1">
          <mxGeometry x="570" y="880" width="120" height="60" as="geometry" />
        </mxCell>
        <mxCell id="2QHzCjNp6x9rJyndLg0q-56" style="edgeStyle=orthogonalEdgeStyle;rounded=0;orthogonalLoop=1;jettySize=auto;html=1;" parent="1" source="2QHzCjNp6x9rJyndLg0q-38" target="2QHzCjNp6x9rJyndLg0q-42" edge="1">
          <mxGeometry relative="1" as="geometry" />
        </mxCell>
        <mxCell id="2QHzCjNp6x9rJyndLg0q-38" value="Отслеживание статуса заявки" style="rounded=0;whiteSpace=wrap;html=1;" parent="1" vertex="1">
          <mxGeometry x="240" y="960" width="120" height="60" as="geometry" />
        </mxCell>
        <mxCell id="2QHzCjNp6x9rJyndLg0q-55" style="edgeStyle=orthogonalEdgeStyle;rounded=0;orthogonalLoop=1;jettySize=auto;html=1;entryX=0.5;entryY=0;entryDx=0;entryDy=0;" parent="1" source="2QHzCjNp6x9rJyndLg0q-39" target="2QHzCjNp6x9rJyndLg0q-40" edge="1">
          <mxGeometry relative="1" as="geometry" />
        </mxCell>
        <mxCell id="2QHzCjNp6x9rJyndLg0q-39" value="Назначение ответственных за выполнение работы" style="rounded=0;whiteSpace=wrap;html=1;" parent="1" vertex="1">
          <mxGeometry x="480" y="1060" width="120" height="60" as="geometry" />
        </mxCell>
        <mxCell id="2QHzCjNp6x9rJyndLg0q-40" value="Добавление комментариев на форму заявки" style="verticalLabelPosition=middle;verticalAlign=middle;html=1;shape=trapezoid;perimeter=trapezoidPerimeter;whiteSpace=wrap;size=0.23;arcSize=10;flipV=1;labelPosition=center;align=center;" parent="1" vertex="1">
          <mxGeometry x="470" y="1210" width="140" height="70" as="geometry" />
        </mxCell>
        <mxCell id="2QHzCjNp6x9rJyndLg0q-72" style="edgeStyle=orthogonalEdgeStyle;rounded=0;orthogonalLoop=1;jettySize=auto;html=1;" parent="1" source="2QHzCjNp6x9rJyndLg0q-41" target="2QHzCjNp6x9rJyndLg0q-24" edge="1">
          <mxGeometry relative="1" as="geometry" />
        </mxCell>
        <mxCell id="2QHzCjNp6x9rJyndLg0q-41" value="Подача заявки" style="shape=parallelogram;perimeter=parallelogramPerimeter;whiteSpace=wrap;html=1;fixedSize=1;" parent="1" vertex="1">
          <mxGeometry x="490" y="750" width="120" height="60" as="geometry" />
        </mxCell>
        <mxCell id="2QHzCjNp6x9rJyndLg0q-61" style="edgeStyle=orthogonalEdgeStyle;rounded=0;orthogonalLoop=1;jettySize=auto;html=1;entryX=0.5;entryY=0;entryDx=0;entryDy=0;" parent="1" source="2QHzCjNp6x9rJyndLg0q-42" target="2QHzCjNp6x9rJyndLg0q-50" edge="1">
          <mxGeometry relative="1" as="geometry" />
        </mxCell>
        <mxCell id="2QHzCjNp6x9rJyndLg0q-42" value="Отслеживание состояния работы и получение уведомлений о её завершении" style="shape=parallelogram;perimeter=parallelogramPerimeter;whiteSpace=wrap;html=1;fixedSize=1;" parent="1" vertex="1">
          <mxGeometry x="790" y="1080" width="210" height="80" as="geometry" />
        </mxCell>
        <mxCell id="2QHzCjNp6x9rJyndLg0q-67" style="edgeStyle=orthogonalEdgeStyle;rounded=0;orthogonalLoop=1;jettySize=auto;html=1;exitX=1;exitY=0.5;exitDx=0;exitDy=0;exitPerimeter=0;" parent="1" source="2QHzCjNp6x9rJyndLg0q-43" target="2QHzCjNp6x9rJyndLg0q-24" edge="1">
          <mxGeometry relative="1" as="geometry">
            <Array as="points">
              <mxPoint x="950" y="890" />
            </Array>
          </mxGeometry>
        </mxCell>
        <mxCell id="2QHzCjNp6x9rJyndLg0q-43" value="Возможность редактирования заявки" style="strokeWidth=2;html=1;shape=mxgraph.flowchart.decision;whiteSpace=wrap;" parent="1" vertex="1">
          <mxGeometry x="820" y="840" width="100" height="100" as="geometry" />
        </mxCell>
        <mxCell id="2QHzCjNp6x9rJyndLg0q-62" style="edgeStyle=orthogonalEdgeStyle;rounded=0;orthogonalLoop=1;jettySize=auto;html=1;entryX=1;entryY=0.5;entryDx=0;entryDy=0;" parent="1" source="2QHzCjNp6x9rJyndLg0q-44" target="2QHzCjNp6x9rJyndLg0q-50" edge="1">
          <mxGeometry relative="1" as="geometry">
            <Array as="points">
              <mxPoint x="1530" y="770" />
              <mxPoint x="1530" y="1280" />
            </Array>
          </mxGeometry>
        </mxCell>
        <mxCell id="2QHzCjNp6x9rJyndLg0q-44" value="База данных" style="shape=datastore;whiteSpace=wrap;html=1;boundedLbl=1;backgroundOutline=1;size=15;" parent="1" vertex="1">
          <mxGeometry x="1200" y="450" width="60" height="80" as="geometry" />
        </mxCell>
        <mxCell id="2QHzCjNp6x9rJyndLg0q-45" value="Добавление в базу данных" style="shape=parallelogram;perimeter=parallelogramPerimeter;whiteSpace=wrap;html=1;fixedSize=1;" parent="1" vertex="1">
          <mxGeometry x="1110" y="870" width="120" height="60" as="geometry" />
        </mxCell>
        <mxCell id="H7VhrKVFprS9EYc4en_8-1" style="edgeStyle=orthogonalEdgeStyle;rounded=0;orthogonalLoop=1;jettySize=auto;html=1;entryX=0.5;entryY=0;entryDx=0;entryDy=0;" edge="1" parent="1" source="2QHzCjNp6x9rJyndLg0q-47" target="2QHzCjNp6x9rJyndLg0q-49">
          <mxGeometry relative="1" as="geometry">
            <Array as="points">
              <mxPoint x="1150" y="1045" />
              <mxPoint x="1150" y="1210" />
              <mxPoint x="970" y="1210" />
              <mxPoint x="970" y="1420" />
            </Array>
          </mxGeometry>
        </mxCell>
        <mxCell id="2QHzCjNp6x9rJyndLg0q-47" value="Получение отчёта по статистике работы отдела обслуживания" style="shape=display;whiteSpace=wrap;html=1;" parent="1" vertex="1">
          <mxGeometry x="1250" y="1020" width="160" height="50" as="geometry" />
        </mxCell>
        <mxCell id="2QHzCjNp6x9rJyndLg0q-59" style="edgeStyle=orthogonalEdgeStyle;rounded=0;orthogonalLoop=1;jettySize=auto;html=1;entryX=0.5;entryY=0;entryDx=0;entryDy=0;" parent="1" source="2QHzCjNp6x9rJyndLg0q-48" target="2QHzCjNp6x9rJyndLg0q-49" edge="1">
          <mxGeometry relative="1" as="geometry" />
        </mxCell>
        <mxCell id="2QHzCjNp6x9rJyndLg0q-48" value="Формирование отчёта по проделанной работе" style="shape=display;whiteSpace=wrap;html=1;" parent="1" vertex="1">
          <mxGeometry x="680" y="1300" width="170" height="50" as="geometry" />
        </mxCell>
        <mxCell id="2QHzCjNp6x9rJyndLg0q-49" value="Выход" style="ellipse;whiteSpace=wrap;html=1;" parent="1" vertex="1">
          <mxGeometry x="715" y="1420" width="120" height="80" as="geometry" />
        </mxCell>
        <mxCell id="2QHzCjNp6x9rJyndLg0q-58" style="edgeStyle=orthogonalEdgeStyle;rounded=0;orthogonalLoop=1;jettySize=auto;html=1;" parent="1" source="2QHzCjNp6x9rJyndLg0q-50" target="2QHzCjNp6x9rJyndLg0q-48" edge="1">
          <mxGeometry relative="1" as="geometry" />
        </mxCell>
        <mxCell id="2QHzCjNp6x9rJyndLg0q-60" style="edgeStyle=orthogonalEdgeStyle;rounded=0;orthogonalLoop=1;jettySize=auto;html=1;entryX=0.5;entryY=0;entryDx=0;entryDy=0;" parent="1" source="2QHzCjNp6x9rJyndLg0q-50" target="2QHzCjNp6x9rJyndLg0q-51" edge="1">
          <mxGeometry relative="1" as="geometry" />
        </mxCell>
        <mxCell id="2QHzCjNp6x9rJyndLg0q-50" value="Затраченные ресурсы" style="rounded=0;whiteSpace=wrap;html=1;" parent="1" vertex="1">
          <mxGeometry x="1010" y="1250" width="120" height="60" as="geometry" />
        </mxCell>
        <mxCell id="2QHzCjNp6x9rJyndLg0q-51" value="Время, стоимость и материалы" style="shape=parallelogram;perimeter=parallelogramPerimeter;whiteSpace=wrap;html=1;fixedSize=1;" parent="1" vertex="1">
          <mxGeometry x="1010" y="1400" width="120" height="60" as="geometry" />
        </mxCell>
        <mxCell id="2QHzCjNp6x9rJyndLg0q-52" style="edgeStyle=orthogonalEdgeStyle;rounded=0;orthogonalLoop=1;jettySize=auto;html=1;entryX=0.592;entryY=-0.05;entryDx=0;entryDy=0;entryPerimeter=0;" parent="1" source="2QHzCjNp6x9rJyndLg0q-41" target="2QHzCjNp6x9rJyndLg0q-37" edge="1">
          <mxGeometry relative="1" as="geometry" />
        </mxCell>
        <mxCell id="2QHzCjNp6x9rJyndLg0q-57" style="edgeStyle=orthogonalEdgeStyle;rounded=0;orthogonalLoop=1;jettySize=auto;html=1;entryX=0.627;entryY=-0.02;entryDx=0;entryDy=0;entryPerimeter=0;" parent="1" source="2QHzCjNp6x9rJyndLg0q-42" target="2QHzCjNp6x9rJyndLg0q-48" edge="1">
          <mxGeometry relative="1" as="geometry" />
        </mxCell>
        <mxCell id="2QHzCjNp6x9rJyndLg0q-63" style="edgeStyle=orthogonalEdgeStyle;rounded=0;orthogonalLoop=1;jettySize=auto;html=1;entryX=0.994;entryY=0.68;entryDx=0;entryDy=0;entryPerimeter=0;" parent="1" source="2QHzCjNp6x9rJyndLg0q-44" target="2QHzCjNp6x9rJyndLg0q-47" edge="1">
          <mxGeometry relative="1" as="geometry">
            <Array as="points">
              <mxPoint x="1480" y="490" />
              <mxPoint x="1480" y="1054" />
            </Array>
          </mxGeometry>
        </mxCell>
        <mxCell id="2QHzCjNp6x9rJyndLg0q-64" style="edgeStyle=orthogonalEdgeStyle;rounded=0;orthogonalLoop=1;jettySize=auto;html=1;entryX=0.5;entryY=1;entryDx=0;entryDy=0;entryPerimeter=0;" parent="1" source="2QHzCjNp6x9rJyndLg0q-45" target="2QHzCjNp6x9rJyndLg0q-44" edge="1">
          <mxGeometry relative="1" as="geometry" />
        </mxCell>
        <mxCell id="2QHzCjNp6x9rJyndLg0q-66" style="edgeStyle=orthogonalEdgeStyle;rounded=0;orthogonalLoop=1;jettySize=auto;html=1;entryX=0.7;entryY=0.23;entryDx=0;entryDy=0;entryPerimeter=0;" parent="1" source="2QHzCjNp6x9rJyndLg0q-44" target="2QHzCjNp6x9rJyndLg0q-24" edge="1">
          <mxGeometry relative="1" as="geometry">
            <Array as="points">
              <mxPoint x="1060" y="490" />
              <mxPoint x="1060" y="753" />
            </Array>
          </mxGeometry>
        </mxCell>
        <mxCell id="2QHzCjNp6x9rJyndLg0q-68" style="edgeStyle=orthogonalEdgeStyle;rounded=0;orthogonalLoop=1;jettySize=auto;html=1;entryX=0.048;entryY=0.413;entryDx=0;entryDy=0;entryPerimeter=0;" parent="1" source="2QHzCjNp6x9rJyndLg0q-39" target="2QHzCjNp6x9rJyndLg0q-42" edge="1">
          <mxGeometry relative="1" as="geometry" />
        </mxCell>
        <mxCell id="2QHzCjNp6x9rJyndLg0q-69" style="edgeStyle=orthogonalEdgeStyle;rounded=0;orthogonalLoop=1;jettySize=auto;html=1;exitX=0.76;exitY=0.75;exitDx=0;exitDy=0;exitPerimeter=0;entryX=0.75;entryY=0;entryDx=0;entryDy=0;" parent="1" source="2QHzCjNp6x9rJyndLg0q-24" target="2QHzCjNp6x9rJyndLg0q-42" edge="1">
          <mxGeometry relative="1" as="geometry">
            <mxPoint x="1000" y="830" as="sourcePoint" />
            <Array as="points">
              <mxPoint x="976" y="1020" />
              <mxPoint x="948" y="1020" />
            </Array>
          </mxGeometry>
        </mxCell>
        <mxCell id="2QHzCjNp6x9rJyndLg0q-73" style="edgeStyle=orthogonalEdgeStyle;rounded=0;orthogonalLoop=1;jettySize=auto;html=1;entryX=1;entryY=0.7;entryDx=0;entryDy=0;exitX=1;exitY=0.75;exitDx=0;exitDy=0;" parent="1" source="2QHzCjNp6x9rJyndLg0q-37" target="2QHzCjNp6x9rJyndLg0q-44" edge="1">
          <mxGeometry relative="1" as="geometry">
            <Array as="points">
              <mxPoint x="700" y="925" />
              <mxPoint x="700" y="960" />
              <mxPoint x="1280" y="960" />
              <mxPoint x="1280" y="506" />
            </Array>
          </mxGeometry>
        </mxCell>
      </root>
    </mxGraphModel>
  </diagram>
</mxfile>
